PathFileType	4	(X/Y/Z)	Patient4_TMGait_0pt6_02_left_39.trc.trc
DataRate	CameraRate	NumFrames	NumMarkers	Units	OrigDataRate	OrigDataStartFrame	OrigNumFrames
81.871345029240	81.871345029240	5	33	mm	81.871345029240	89	       141
Frame#	Time	Sacral			L.Shoulder			Chest			R.Shoulder			Neck			R.ASIS			L.ASIS			R.Thigh.Superior			R.Thigh.Lateral			R.Thigh.Inferior			R.Patella			L.Thigh.Superior			L.Thigh.Lateral			L.Thigh.Inferior			L.Patella			L.Shank.Superior			L.Shank.Lateral			L.Shank.Inferior			R.Shank.Superior			R.Shank.Lateral			R.Shank.Inferior			R.Heel			R.Midfoot.Superior			R.Midfoot.Lateral			R.Toe			L.Heel			L.Midfoot.Lateral			L.Midfoot.Superior			L.Toe			L.Elbow			L.Wrist			R.Elbow			R.Wrist			
		X1	Y1	Z1	X2	Y2	Z2	X3	Y3	Z3	X4	Y4	Z4	X5	Y5	Z5	X6	Y6	Z6	X7	Y7	Z7	X8	Y8	Z8	X9	Y9	Z9	X10	Y10	Z10	X11	Y11	Z11	X12	Y12	Z12	X13	Y13	Z13	X14	Y14	Z14	X15	Y15	Z15	X16	Y16	Z16	X17	Y17	Z17	X18	Y18	Z18	X19	Y19	Z19	X20	Y20	Z20	X21	Y21	Z21	X22	Y22	Z22	X23	Y23	Z23	X24	Y24	Z24	X25	Y25	Z25	X26	Y26	Z26	X27	Y27	Z27	X28	Y28	Z28	X29	Y29	Z29	X30	Y30	Z30	X31	Y31	Z31	X32	Y32	Z32	X33	Y33	Z33	

89	48.664857142857	821.367510949700	1014.075715720950	539.748905005893	1033.429758022829	1430.463413691950	359.585828191955	1130.308950815765	1347.539493866518	518.352298673068	1055.597332006017	1430.753093836924	691.449926203916	1042.649235952348	1488.440086028816	510.322103328271	1046.243081340611	936.166984595848	654.637934842376	1036.419551630505	960.954127176708	377.125926936143	1099.276642736318	746.947252862172	630.003173403600	1026.705086027524	636.455721090070	693.505530954086	1108.193926907015	588.179844606220	614.268882303623	1118.090222390239	500.586604456491	624.044170832362	1063.387241498256	739.538843459471	400.431015963364	971.484861097642	629.887272799510	334.883616378529	1056.041714224575	541.079008418498	389.364738535166	1046.397405682887	457.010273807026	387.307846524106	979.340980418822	401.273059668740	381.333731776414	841.328548795862	354.136742979906	329.813788955595	829.525307041758	225.502112662153	386.690714412045	1095.421535592129	411.144745202096	634.590053151067	1030.803592472914	305.213835431716	699.473972304012	1079.181969523391	211.008096673671	639.745486634136	955.362386241279	43.580001713299	614.658781611232	1125.988359022246	98.635741306953	648.534126283774	1039.239310171535	37.428235992165	689.026089141245	1247.294080633523	46.251573263215	675.589383035359	640.150956024236	152.848530456574	420.821443407397	701.769074891238	104.206398152457	347.044347379098	804.037394444375	119.454444808919	370.340261379130	888.231255277922	32.655670385936	356.336615367912	972.389028317510	1089.983968662242	229.814909651675	1215.169491372352	1008.987034791531	240.933567989575	944.766392385582	1114.818671308808	833.257269580116	1026.176054586475	865.735123624978	813.840963823911	
90	48.677071428571	821.389202661383	1015.102453421564	542.711108143903	1033.152497294241	1431.191296273156	361.804840972728	1130.733305060395	1348.076912381647	520.068261431952	1056.929399505880	1431.312014969893	693.611677428417	1043.088207198978	1489.070734910643	512.616122628881	1046.296872978260	937.170934132148	657.162166778055	1036.308050780614	961.510298746112	379.866467881908	1096.878697044013	745.989187873430	633.187835114757	1022.824150778506	636.637545758487	695.983823739815	1103.316550129084	587.480500407288	616.227102907179	1112.067701312050	500.097361323808	625.654609286978	1068.202454222944	742.475996554828	403.585865363299	981.055190404646	630.521807400485	336.744136668314	1068.248867773523	543.744902540970	391.686711853019	1059.883572520003	458.433524205949	389.035674434132	991.029596993033	402.824956830945	382.707667598502	851.529154436509	360.544533348020	330.737501507054	835.606677048732	232.010691223962	386.743537313386	1089.320223584227	410.932782732447	636.042584030603	1024.455290132307	305.005262062688	700.596541380587	1072.498371145127	210.900931742573	640.400898945790	948.169609992179	43.535504647408	614.811484109326	1118.976025403161	98.434489471889	648.897721156470	1032.032279156648	37.386285055882	689.215954808454	1240.141868298655	45.976046025558	675.798549831298	644.102442183251	169.835030768013	420.367200410884	702.296258592900	116.729694834516	346.778907829950	805.403806920020	124.779081359232	370.051793512337	882.226125736412	31.249330105837	356.411989499204	967.877112767406	1090.248717688302	234.443551845689	1207.317022153401	998.091632168306	244.806631810247	950.319548571479	1113.995681150165	836.379711708817	1040.069297741437	868.401085928338	812.755637522241	
91	48.689285714286	821.304536931211	1015.949076608128	545.485519660073	1032.658571832781	1431.708071197125	363.832545466401	1131.000077213706	1348.457019408456	521.586489022537	1058.104898238927	1431.731264351665	695.562764346059	1043.369612925620	1489.551109007425	514.690948330870	1046.186293008325	937.994400266663	659.634138402349	1035.744617788658	961.639956363941	382.690338130790	1094.531025094731	745.107269801115	636.294833739930	1018.990760661952	636.759197325178	698.351110058977	1098.665850894505	586.798106571941	618.225666249170	1106.240007022352	499.612154899770	627.263869552625	1072.820041467968	745.589104587799	406.932287112514	990.586295485519	631.544739516452	338.621192264339	1080.094711866957	546.919947735044	394.350454569586	1073.202770816889	460.459437982316	391.186241771866	1002.824316802176	404.795447260635	384.360051379188	862.176431280828	367.013633580881	331.753389324846	842.351091200871	238.728021860330	387.045487207396	1083.380285537906	410.690398389197	637.437528588017	1018.184849220038	304.805785015073	701.656542389571	1065.871481105477	210.769343483886	641.028362033140	940.929778740854	43.515551618323	614.942835399319	1111.888211854623	98.234896863337	649.121480381547	1024.782668620325	37.347876603865	689.386510506771	1232.951231173410	45.658588711217	675.991770012862	649.325738690549	186.705213611002	420.017744075661	704.065839463265	129.563134531531	346.581034821591	807.627378426374	130.585516173516	369.975533359490	877.000772037017	29.952889574803	356.501857880799	963.556035135152	1090.272135694366	238.772382407370	1198.765668118791	986.273717535724	248.601182563966	956.100759621867	1113.023014086592	839.370453319221	1054.715586494971	871.619076841387	811.276137312408	
92	48.701500000000	821.113073623266	1016.624226757349	548.071292303309	1031.982915695648	1432.037667372578	365.676397315792	1131.114024742801	1348.698466528385	522.928747855871	1059.122923350127	1432.040050919992	697.306095015514	1043.521211879354	1489.903322390838	516.547265724331	1045.917861669684	938.653951280812	662.053648225242	1034.701805874924	961.363219328190	385.573743928808	1092.316882356096	744.335088104926	639.267748607638	1015.295535352418	636.837705593484	700.565499985464	1094.329788733739	586.146785960218	620.221304845881	1100.703109360172	499.128426006369	628.828334224142	1077.155817631390	748.879519846238	410.448421851184	999.951581788559	632.994508413942	340.503669235533	1091.447639244083	550.595175366038	397.303797597206	1086.225502459661	463.081583238339	393.652871942379	1014.584224169583	407.185282253887	386.226549402871	873.084716240070	373.435878452422	332.877036401296	849.702381254466	245.483192555019	387.583093648569	1077.671525037975	410.415194031520	638.743190963080	1012.052356677378	304.629927412987	702.642789636693	1059.325571037722	210.610536078690	641.612368230532	933.637935907737	43.520992015760	615.065330618359	1104.728727135756	98.057273008630	649.251733359212	1017.487454470655	37.316325058450	689.538875979816	1225.716569850981	45.322973875838	676.176581178614	655.701765877324	202.858305269333	419.815570780422	707.137047299158	142.217710692540	346.481561271357	810.823080619307	136.695599346629	370.091733256892	872.980590745034	28.933701952908	356.603382496042	959.507538057615	1090.057136489139	242.836407287090	1189.451139525934	973.576948212621	252.270739951193	962.111575249113	1111.916105394207	842.149806083331	1070.059694852037	875.494912689101	809.353788178805	
93	48.713714285714	820.812836445895	1017.150257524558	550.483272296095	1031.162111514397	1432.213247720811	367.349862210258	1131.084530090898	1348.829233097782	524.120460332868	1059.990821651360	1432.271948137644	698.854756526742	1043.569608813250	1490.154645918758	518.195732116899	1045.506717517297	939.172703625308	664.407881318163	1033.212957866646	960.763244685633	388.468946749333	1090.286214492799	743.677499346205	642.056976555361	1011.796164504553	636.885239312535	702.592143121380	1090.342573215237	585.532032704635	622.160774003775	1095.504969843696	498.639170165986	630.301092642717	1081.138943589739	752.344760091175	414.086730961044	1009.032186686263	634.892832051557	342.364511690158	1102.210291078210	554.747093375889	400.453731939668	1098.844528188276	466.282136812075	396.295443085897	1026.193884492739	409.984837225732	388.213136645318	884.082782566181	379.690869865421	334.113370038522	857.632780715316	252.080474916010	388.322438828866	1072.225086666894	410.104349025148	639.930993134366	1006.090459975698	304.484306105958	703.543092846844	1052.871287998523	210.422692844071	642.138774892296	926.298269898176	43.548828592677	615.190300981609	1097.507675808027	97.912426329642	649.329082585390	1010.151300681907	37.291995813355	689.672730573139	1218.439283187607	44.991922259858	676.359029995384	663.102858555699	217.658331744122	419.808639385797	711.565665845333	154.153283539968	346.512866859934	815.139116196332	142.877455226221	370.366620305367	870.678014901908	28.349365986876	356.699585705244	955.800321163630	1089.623326046353	246.684814119034	1179.303064848721	960.096869090706	255.776052610289	968.349997604811	1110.699648906591	844.646386815189	1086.032975368622	880.144686075635	806.945822299177	
